<svg xmlns="http://www.w3.org/2000/svg" viewBox="0 0 512 512" width="768"><rect width="512" height="512" fill="#101623"/><path d="M164.4 22.0 L177.8 22.7 L188.5 26.7 L199.8 36.0 L207.9 50.7 L209.9 160.4 L221.9 155.7 L249.3 155.0 L249.3 90.9 L255.3 76.2 L265.4 66.8 L278.1 62.1 L294.8 64.1 L308.1 73.5 L316.2 90.9 L316.2 189.8 L312.2 201.2 L303.5 210.5 L290.1 215.9 L221.9 215.9 L209.2 211.9 L208.5 324.9 L204.5 335.6 L195.2 346.9 L185.8 352.9 L173.8 356.3 L160.4 355.6 L149.7 351.6 L138.3 342.2 L132.3 332.9 L129.0 320.9 L128.3 251.3 L116.3 256.0 L44.7 255.3 L29.4 246.0 L22.0 229.9 L22.7 134.3 L30.0 120.3 L47.4 109.6 L60.1 108.9 L72.8 113.6 L80.8 120.3 L86.9 130.3 L88.9 137.7 L88.9 195.2 L116.3 195.8 L129.0 199.8 L129.6 53.4 L133.7 42.7 L143.0 31.4 L152.4 25.3 L163.7 22.7 " fill="none" stroke="#7ee08c" stroke-width="1.6"/><text x="167" y="19" fill="#7ee08c" font-size="11">0</text><path d="M75.5 383.0 L262.7 383.0 L242.6 490.0 L95.5 490.0 L75.5 383.7 " fill="none" stroke="#7ee08c" stroke-width="1.6"/><text x="78" y="380" fill="#7ee08c" font-size="11">1</text></svg>