<svg xmlns="http://www.w3.org/2000/svg" viewBox="0 0 512 512" width="768"><rect width="512" height="512" fill="#101623"/><path d="M255.4 22.0 L277.7 193.0 L291.7 199.2 L358.0 153.5 L312.3 219.8 L319.5 234.3 L490.0 256.0 L319.5 277.2 L312.8 292.2 L358.0 358.0 L292.8 312.8 L277.2 319.5 L256.0 490.0 L234.3 319.5 L219.8 312.3 L153.5 358.0 L199.2 291.7 L193.0 277.7 L22.0 256.0 L193.0 233.7 L199.2 219.8 L153.5 153.5 L219.8 199.2 L234.3 191.9 L255.4 22.6 " fill="none" stroke="#7ee08c" stroke-width="1.6"/><text x="258" y="19" fill="#7ee08c" font-size="11">0</text><path d="M251.5 218.7 L237.1 223.7 L226.5 233.2 L220.3 244.3 L218.7 260.5 L223.7 274.9 L233.2 285.5 L244.3 291.7 L260.5 293.3 L274.9 288.3 L285.5 278.8 L291.7 267.7 L293.3 251.5 L288.3 237.1 L278.8 226.5 L267.7 220.3 L252.1 218.7 " fill="none" stroke="#7ee08c" stroke-width="1.6"/><text x="255" y="216" fill="#7ee08c" font-size="11">1</text><path d="M253.8 243.7 L263.2 246.0 L268.3 253.8 L266.0 263.2 L258.2 268.3 L248.8 266.0 L243.7 258.2 L246.0 248.8 L253.2 244.3 " fill="none" stroke="#ffb14d" stroke-width="1.6"/><text x="257" y="241" fill="#ffb14d" font-size="11">2</text></svg>