<svg xmlns="http://www.w3.org/2000/svg" viewBox="0 0 512 512" width="768"><rect width="512" height="512" fill="#101623"/><path d="M22.0 179.5 L161.9 179.5 L161.9 331.2 L22.7 180.2 " fill="none" stroke="#7ee08c" stroke-width="1.6"/><text x="25" y="177" fill="#7ee08c" font-size="11">0</text><path d="M179.5 179.5 L318.7 179.5 L179.5 330.5 L179.5 180.2 " fill="none" stroke="#7ee08c" stroke-width="1.6"/><text x="183" y="177" fill="#7ee08c" font-size="11">1</text><path d="M161.9 22.0 L161.9 161.9 L22.0 161.9 L161.2 22.7 " fill="none" stroke="#7ee08c" stroke-width="1.6"/><text x="165" y="19" fill="#7ee08c" font-size="11">2</text><path d="M179.5 22.7 L318.7 161.9 L179.5 161.9 L179.5 23.3 " fill="none" stroke="#7ee08c" stroke-width="1.6"/><text x="183" y="20" fill="#7ee08c" font-size="11">3</text><path d="M159.3 350.8 L176.9 360.6 L144.2 418.8 L185.4 478.9 L169.1 490.0 L124.6 424.6 L133.1 418.8 L124.0 413.5 L158.6 351.4 " fill="none" stroke="#7ee08c" stroke-width="1.6"/><text x="162" y="348" fill="#7ee08c" font-size="11">4</text></svg>