<svg xmlns="http://www.w3.org/2000/svg" viewBox="0 0 512 512" width="768"><rect width="512" height="512" fill="#101623"/><path d="M246.1 22.0 L253.8 24.2 L256.6 29.2 L255.4 35.2 L248.8 40.2 L248.8 42.9 L273.1 177.8 L297.3 178.4 L297.3 243.9 L319.3 244.4 L352.4 310.5 L379.9 310.5 L379.9 354.0 L397.5 355.7 L457.0 431.6 L38.5 431.6 L98.0 355.7 L115.6 354.0 L115.6 310.5 L143.1 310.5 L176.2 244.4 L198.2 243.9 L198.2 178.4 L222.4 177.8 L246.6 42.9 L246.6 40.2 L240.0 35.2 L238.9 29.2 L245.5 22.6 " fill="none" stroke="#7ee08c" stroke-width="1.6"/><text x="249" y="19" fill="#7ee08c" font-size="11">0</text><path d="M22.0 459.2 L473.5 459.2 L473.5 490.0 L22.0 490.0 L22.0 459.7 " fill="none" stroke="#7ee08c" stroke-width="1.6"/><text x="25" y="456" fill="#7ee08c" font-size="11">1</text><path d="M224.1 199.8 L216.9 205.9 L215.3 216.4 L220.8 225.7 L227.4 227.4 L234.5 221.3 L236.2 210.9 L230.7 201.5 L224.6 199.8 " fill="none" stroke="#ffb14d" stroke-width="1.6"/><text x="227" y="197" fill="#ffb14d" font-size="11">2</text><path d="M268.1 199.8 L261.0 205.9 L259.3 216.4 L264.8 225.7 L271.4 227.4 L278.6 221.3 L280.2 210.9 L274.7 201.5 L268.7 199.8 " fill="none" stroke="#ffb14d" stroke-width="1.6"/><text x="271" y="197" fill="#ffb14d" font-size="11">3</text></svg>