<svg xmlns="http://www.w3.org/2000/svg" viewBox="0 0 512 512" width="768"><rect width="512" height="512" fill="#101623"/><path d="M52.6 71.4 L148.8 71.4 L148.8 100.3 L157.6 100.7 L157.6 122.6 L142.3 123.0 L142.3 239.4 L162.0 239.8 L162.0 377.2 L153.2 377.6 L153.2 467.7 L179.5 468.1 L179.5 490.0 L22.0 490.0 L22.0 468.1 L48.2 467.7 L48.2 377.6 L39.5 377.2 L39.5 239.8 L59.2 239.4 L59.2 123.0 L43.9 122.6 L43.9 100.7 L52.6 100.3 L52.6 71.9 " fill="none" stroke="#7ee08c" stroke-width="1.6"/><text x="56" y="68" fill="#7ee08c" font-size="11">0</text><path d="M52.6 22.0 L148.8 22.0 L148.8 52.2 L52.6 52.2 L52.6 22.4 " fill="none" stroke="#7ee08c" stroke-width="1.6"/><text x="56" y="19" fill="#7ee08c" font-size="11">1</text><path d="M88.0 377.2 L87.6 467.7 L113.4 468.1 L113.9 377.6 L88.5 377.2 " fill="none" stroke="#7ee08c" stroke-width="1.6"/><text x="91" y="374" fill="#7ee08c" font-size="11">2</text><path d="M97.7 144.0 L85.0 151.0 L83.2 161.1 L88.0 167.2 L95.5 170.7 L109.9 169.4 L117.3 162.8 L118.2 154.1 L110.8 146.2 L98.1 144.0 " fill="none" stroke="#ffb14d" stroke-width="1.6"/><text x="101" y="141" fill="#ffb14d" font-size="11">3</text><path d="M99.0 267.4 L93.3 271.7 L92.4 277.4 L96.8 283.1 L102.5 284.0 L108.2 279.6 L109.0 273.9 L104.7 268.2 L99.4 267.4 " fill="none" stroke="#ffb14d" stroke-width="1.6"/><text x="102" y="264" fill="#ffb14d" font-size="11">4</text><path d="M99.0 302.4 L93.3 306.7 L92.4 312.4 L96.8 318.1 L102.5 319.0 L108.2 314.6 L109.0 308.9 L104.7 303.2 L99.4 302.4 " fill="none" stroke="#ffb14d" stroke-width="1.6"/><text x="102" y="299" fill="#ffb14d" font-size="11">5</text><path d="M99.0 337.4 L93.3 341.7 L92.4 347.4 L96.8 353.1 L102.5 354.0 L108.2 349.6 L109.0 343.9 L104.7 338.2 L99.4 337.4 " fill="none" stroke="#ffb14d" stroke-width="1.6"/><text x="102" y="334" fill="#ffb14d" font-size="11">6</text></svg>