<svg xmlns="http://www.w3.org/2000/svg" viewBox="0 0 512 512" width="768"><rect width="512" height="512" fill="#101623"/><path d="M278.5 22.0 L332.5 53.5 L305.5 89.5 L373.0 98.5 L346.0 134.5 L395.5 152.5 L351.4 179.1 L341.5 181.8 L343.3 191.6 L376.1 203.3 L379.8 190.3 L384.2 206.5 L436.9 228.5 L458.5 241.6 L458.5 238.0 L490.0 231.2 L485.5 274.0 L460.8 262.8 L460.3 260.5 L440.5 265.0 L383.8 260.5 L350.9 266.3 L317.6 281.6 L300.1 299.2 L300.1 301.0 L307.3 301.0 L307.3 345.5 L313.6 346.0 L318.1 362.2 L266.8 362.2 L272.2 346.0 L278.5 345.5 L278.0 322.1 L242.5 328.0 L213.2 325.8 L212.8 345.5 L219.1 346.0 L223.6 362.2 L172.3 362.2 L177.7 346.0 L184.0 345.5 L184.0 312.2 L175.9 308.2 L157.0 305.5 L148.0 301.0 L136.8 288.4 L126.8 269.5 L121.4 252.4 L118.8 230.3 L118.8 213.7 L125.5 181.3 L121.9 162.4 L80.5 163.8 L40.0 157.0 L111.5 141.2 L112.4 138.5 L106.2 125.5 L105.2 139.0 L62.5 118.8 L22.0 91.8 L67.0 91.8 L104.3 118.3 L108.4 102.1 L124.1 91.8 L116.5 58.0 L145.8 87.2 L142.1 89.9 L152.1 93.1 L157.0 53.5 L177.2 96.2 L155.2 94.4 L167.8 105.2 L176.3 128.6 L187.6 147.5 L193.0 153.8 L197.5 136.3 L203.8 162.4 L216.4 168.2 L202.0 121.4 L215.5 53.5 L278.0 22.5 " fill="none" stroke="#7ee08c" stroke-width="1.6"/><text x="282" y="19" fill="#7ee08c" font-size="11">0</text><path d="M143.5 378.4 L359.5 378.4 L395.5 395.5 L107.5 395.5 L143.0 378.8 " fill="none" stroke="#7ee08c" stroke-width="1.6"/><text x="146" y="375" fill="#7ee08c" font-size="11">1</text><path d="M128.6 106.2 L122.3 110.2 L121.4 114.7 L126.8 120.1 L134.0 120.1 L138.5 116.5 L139.4 112.0 L135.9 107.5 L129.1 106.2 " fill="none" stroke="#ffb14d" stroke-width="1.6"/><text x="132" y="103" fill="#ffb14d" font-size="11">2</text></svg>